<svg viewBox="0 0 200 171" version="1.1"
	xmlns="http://www.w3.org/2000/svg" xmlns:xlink="http://www.w3.org/1999/xlink" xml:space="preserve"
	x="0px" y="0px" width="200px" height="171px"
>
	<g>		
		<g>
			<path id="Indigo" d="M 15.626 93.0909 C 15.7619 93.0913 15.8955 93.1415 15.9951 93.2418 L 17.777 95.2488 C 17.9747 95.448 18.1581 96 17.781 96 L 17 96 L 17 103.5986 C 17 105.8444 16.2379 106.9502 15.4513 106.9977 L 15.6655 106.9985 L 15.7058 107 L 12.3333 107 C 10.5878 107 9.696 100.6129 8.4185 97.0202 L 8.3399 96.8051 L 8.0285 96.8945 C 8.0012 97.2183 8 97.5141 8 97.7273 L 8 103.9091 C 8 106.2273 7.196 107 5.5627 107 L 3.4286 107 C 1.7925 107 1 106.268 1 103.9091 L 1 96.5454 C 1 95.7727 1.8182 95 2.636 95 L 4 95 L 4 104.1436 C 4 105.1578 4.1486 105.5125 4.3862 106 L 4.6373 106 L 4.5988 105.9721 C 4.8427 105.4831 5 104.9203 5 103.9091 L 5 97.5694 C 5 95.2512 5.9479 94.5 6.6246 94.5 L 6.9676 94.5 L 7 94.5004 L 7.0077 94.4575 C 6.952 94.4443 10.0469 94.4375 10.0469 94.4375 C 11.696 94.4375 12.5531 101.3871 13.8733 104.9798 L 13.9421 104.8003 L 13.9628 104.7052 C 13.9866 104.463 14 104.1973 14 103.9091 L 14 96 L 13.4577 96 C 13.1826 96 13.2338 95.5484 13.4432 95.3529 L 15.2457 93.2407 C 15.3532 93.1407 15.4908 93.0905 15.626 93.0909 ZM 3.2938 90 C 4.5602 90 5.5872 90.8022 5.5872 91.7915 C 5.5872 92.7808 4.8227 93.5825 2.7538 93.5825 C 1.138 93.5825 1 94.3787 1 94.3787 L 1 91.7915 C 1 90.8022 2.0269 90 3.2938 90 Z" fill="#c4c4c4"/>
			<g id="Highlight">
				<g>
					<path d="M 5.449 84.5039 C 5.9608 84.5039 6.1661 84.9122 6.1661 85.1679 C 6.1661 85.8312 3.861 87.7706 3.7071 87.924 C 3.5538 88.0256 3.3999 88.0767 3.2463 88.0767 C 2.7338 88.0767 2.5806 87.6179 2.5806 87.3623 C 2.5806 86.7494 4.6803 84.9122 4.8856 84.7595 C 5.0389 84.555 5.346 84.5039 5.449 84.5039 ZM 0.6657 81 L 3.6245 81 C 4.0593 81.0252 4.2902 80.9188 4.2902 81.2378 C 4.2902 81.4546 4.1362 81.8603 3.8287 81.9492 L 3.6494 82 L 0.64 82 C 0.2172 81.9233 0 82.0935 0 81.7622 C 0 81.4179 0.2172 81.0641 0.6657 81 ZM 15.4371 74.552 C 15.9496 74.552 16.1541 74.96 16.1541 75.2153 C 16.1541 75.777 15.4891 76.1342 14.9254 76.7467 C 14.6175 77.0528 14.2083 77.5119 13.7985 77.9206 C 13.6445 78.0225 13.3887 78.1245 13.2354 78.1245 C 12.7223 78.1245 12.569 77.6653 12.569 77.41 C 12.569 76.7975 14.6175 75.0111 14.9254 74.7561 C 15.0273 74.6028 15.3345 74.552 15.4371 74.552 ZM 3.2463 74.552 C 3.7071 74.552 5.9098 76.8483 5.9608 76.8994 C 6.0638 77.002 6.1661 77.3081 6.1661 77.41 C 6.1661 77.9206 5.7046 78.1245 5.449 78.1245 C 4.8343 78.1245 3.0414 76.0323 2.7851 75.777 C 2.6829 75.6233 2.5806 75.368 2.5806 75.2153 C 2.5806 74.8581 2.8881 74.552 3.2463 74.552 ZM 9.7177 72 C 9.961 72 9.8341 72.1527 9.9494 72.4721 L 10 72.6384 L 10 75.6362 C 9.9494 76.0575 9.5779 76.2869 9.2837 76.2869 C 9.0401 76.2869 9.1539 76.1342 9.0387 75.8148 L 9 75.6492 L 9 72.6384 C 9.0387 72.2164 9.4102 72 9.7177 72 Z" fill="#c4c4c4"/>
				</g>
				<g>
					<path d="M 7 78 L 10 88 L 12.5 85.5 L 16 89 L 18 87 L 14.5 83.5 L 17 81 L 7 78 Z" fill="#c4c4c4"/>
				</g>
			</g>
			<g id="Close">
				<path d="M 15.0486 67.5967 L 13.5964 69.0476 C 13.3306 69.3146 12.8963 69.3146 12.6292 69.0476 L 9.0007 65.4204 L 5.3718 69.0476 C 5.1055 69.3146 4.6704 69.3146 4.4047 69.0462 L 2.9514 67.5967 C 2.6858 67.3297 2.6858 66.897 2.9514 66.6285 L 6.5803 63 L 2.9524 59.3721 C 2.6868 59.1044 2.6868 58.669 2.9524 58.404 L 4.4047 56.9524 C 4.6704 56.6841 5.1061 56.6841 5.3718 56.9524 L 9 60.581 L 12.6289 56.9524 C 12.8963 56.6841 13.3306 56.6841 13.5953 56.9524 L 15.0476 58.402 C 15.3143 58.669 15.3143 59.1044 15.0486 59.3721 L 11.4204 63 L 15.0486 66.6285 C 15.3143 66.897 15.3143 67.3297 15.0486 67.5967 Z" fill="#c4c4c4"/>
			</g>
			<g id="Pencil">
				<path d="M 6.8927 49.5473 L 3.7475 46.405 C 3.6008 46.2584 3.3875 46.199 3.1864 46.2516 C 2.9852 46.303 2.8264 46.4563 2.7679 46.6549 L 0.7745 51.7892 C 0.7139 51.9952 0.7711 52.2174 0.9229 52.3694 C 1.0347 52.4809 1.2927 52.5518 1.5036 52.518 L 6.6418 50.526 C 6.8413 50.4673 6.9951 50.3085 7.0465 50.1079 C 7.0978 49.9067 7.0394 49.6939 6.8927 49.5473 Z" fill="#c4c4c4"/>
				<g>
					<path d="M 11.8335 37.7197 L 15.5867 41.4693 L 7.5133 49.5345 L 3.7607 45.7849 L 11.8335 37.7197 L 11.8335 37.7197 ZM 11.8338 36.1081 C 11.6273 36.1081 11.4211 36.1864 11.2639 36.3431 L 2.3829 45.2155 C 2.0691 45.5296 2.0688 46.0416 2.3829 46.3543 L 6.9434 50.9111 C 7.1005 51.0685 7.3071 51.1468 7.5136 51.1468 C 7.7202 51.1468 7.9264 51.0685 8.0832 50.9111 L 16.9642 42.0394 C 17.2783 41.724 17.2783 41.2126 16.9642 40.8999 L 12.4034 36.3431 C 12.2465 36.1864 12.0403 36.1081 11.8338 36.1081 L 11.8338 36.1081 Z" fill="#c4c4c4"/>
				</g>
				<path d="M 4.5669 44.7089 L 3.3236 45.9511 L 7.3909 50.0147 L 8.6342 48.7725 L 4.5669 44.7089 Z" fill="#c4c4c4"/>
				<path d="M 6.6547 42.623 L 5.9137 43.3633 L 9.981 47.427 L 10.722 46.6867 L 6.6547 42.623 Z" fill="#c4c4c4"/>
				<path d="M 16.6154 54 L 3.4615 54 C 3.0701 54 2.753 54.099 2.753 53.7079 C 2.753 53.3168 3.0701 53 3.4615 53 L 16.6154 53 C 17.0068 53 17.3239 53.3168 17.3239 53.7079 C 17.3239 54.099 17.0068 54 16.6154 54 Z" fill="#c4c4c4"/>
			</g>
			<g id="Note">
				<path d="M 9.7796 34.7703 C 9.4361 34.7703 9.1379 34.5146 9.0934 34.1651 C 9.0453 33.7858 9.3137 33.439 9.693 33.391 C 11.4042 33.174 12.4385 32.4885 13.69 29.1811 C 14.9415 25.8736 15.9603 22.7001 16.393 21.3148 L 7.5052 19.5449 L 4.857 26.8797 C 4.7278 27.24 4.3303 27.4266 3.9706 27.2955 C 3.6109 27.1656 3.4251 26.7688 3.5548 26.4091 L 6.4052 18.5144 C 6.5221 18.1913 6.8582 18 7.1915 18.071 L 17.4159 20.1067 C 17.6073 20.1445 17.7735 20.2615 17.8743 20.4285 C 17.9744 20.5962 18 20.7976 17.944 20.9842 C 17.9311 21.0262 16.6661 25.2293 14.9854 29.6705 C 13.6805 33.1179 12.3412 34.4511 9.8674 34.7649 C 9.8376 34.7682 9.8087 34.7703 9.7796 34.7703 Z" fill="#c4c4c4"/>
				<path d="M 9.7681 34.7561 C 8.9243 34.8317 7.9332 34.3558 7.9332 34.3558 L 2.1662 31.738 C 2.1662 31.738 -0.5604 30.8841 0.2582 27.3361 L 8.1353 30.519 C 8.1353 30.519 7.8318 33.6634 10.2981 33.3173 C 10.7375 33.7649 10.5578 34.6154 9.7681 34.7561 Z" fill="#c4c4c4"/>
			</g>
			<path id="Refresh" d="M 5.5613 14.5383 L 10 17 L 10 15.6249 C 13.8164 15.3137 16.8066 12.466 16.8066 8.9997 C 16.8066 7.1939 16.1855 5.5588 14.8698 4.3595 L 13.0016 5.8723 C 13.9078 6.6708 14.275 7.777 14.275 8.9997 C 14.275 11.2244 12.4156 13.0636 10 13.3631 L 10 12.0766 L 5.561 14.5383 L 5.5613 14.5383 ZM 13.6321 3.4617 L 9 1 L 9 2.3754 C 5.1836 2.6863 2.1934 5.5331 2.1934 9.0003 C 2.1934 10.8064 2.8145 12.4425 4.1316 13.6418 L 6.001 12.1287 C 5.0929 11.3305 4.7239 10.2237 4.7239 9.0003 C 4.7239 6.775 6.584 4.9338 9 4.6339 L 9 5.9234 L 13.6321 3.4617 Z" fill="#c4c4c4"/>
			<path id="Indigo2" d="M 33.626 93.0909 C 33.7619 93.0913 33.8955 93.1415 33.9951 93.2418 L 35.777 95.2488 C 35.9747 95.448 36.1581 96 35.781 96 L 35 96 L 35 103.5986 C 35 105.8444 34.2379 106.9502 33.4513 106.9977 L 33.6655 106.9985 L 33.7058 107 L 30.3333 107 C 28.5878 107 27.696 100.6129 26.4185 97.0202 L 26.3399 96.8051 L 26.0285 96.8945 C 26.0012 97.2183 26 97.5141 26 97.7273 L 26 103.9091 C 26 106.2273 25.196 107 23.5627 107 L 21.4286 107 C 19.7925 107 19 106.268 19 103.9091 L 19 96.5454 C 19 95.7727 19.8182 95 20.636 95 L 22 95 L 22 104.1436 C 22 105.1578 22.1486 105.5125 22.3862 106 L 22.6373 106 L 22.5988 105.9721 C 22.8427 105.4831 23 104.9203 23 103.9091 L 23 97.5694 C 23 95.2512 23.9479 94.5 24.6246 94.5 L 24.9676 94.5 L 25 94.5004 L 25.0565 94.4723 C 25.0008 94.4591 28.0957 94.4523 28.0957 94.4523 C 29.7448 94.4523 30.5531 101.3871 31.8733 104.9798 L 31.9421 104.8003 L 31.9628 104.7052 C 31.9866 104.463 32 104.1973 32 103.9091 L 32 96 L 31.4577 96 C 31.1826 96 31.2338 95.5484 31.4432 95.3529 L 33.2457 93.2407 C 33.3532 93.1407 33.4908 93.0905 33.626 93.0909 ZM 21.2938 90 C 22.5602 90 23.5872 90.8022 23.5872 91.7915 C 23.5872 92.7808 22.8227 93.5825 20.7538 93.5825 C 19.138 93.5825 19 94.3787 19 94.3787 L 19 91.7915 C 19 90.8022 20.0269 90 21.2938 90 Z" fill="#79cdff"/>
			<g id="Highlight2">
				<g>
					<path d="M 23.449 84.5039 C 23.9608 84.5039 24.1661 84.9122 24.1661 85.1679 C 24.1661 85.8312 21.861 87.7706 21.7071 87.924 C 21.5538 88.0256 21.3999 88.0767 21.2463 88.0767 C 20.7338 88.0767 20.5806 87.6179 20.5806 87.3623 C 20.5806 86.7494 22.6803 84.9122 22.8856 84.7595 C 23.0389 84.555 23.346 84.5039 23.449 84.5039 ZM 18.6657 81 L 21.6245 81 C 22.0593 81.0252 22.2902 80.9188 22.2902 81.2378 C 22.2902 81.4546 22.1362 81.8603 21.8287 81.9492 L 21.6494 82 L 18.64 82 C 18.2172 81.9233 18 82.0935 18 81.7622 C 18 81.4179 18.2172 81.0641 18.6657 81 ZM 33.4371 74.552 C 33.9496 74.552 34.1541 74.96 34.1541 75.2153 C 34.1541 75.777 33.4891 76.1342 32.9254 76.7467 C 32.6175 77.0528 32.2083 77.5119 31.7985 77.9206 C 31.6445 78.0225 31.3887 78.1245 31.2354 78.1245 C 30.7223 78.1245 30.569 77.6653 30.569 77.41 C 30.569 76.7975 32.6175 75.0111 32.9254 74.7561 C 33.0273 74.6028 33.3345 74.552 33.4371 74.552 ZM 21.2463 74.552 C 21.7071 74.552 23.9098 76.8483 23.9608 76.8994 C 24.0638 77.002 24.1661 77.3081 24.1661 77.41 C 24.1661 77.9206 23.7046 78.1245 23.449 78.1245 C 22.8343 78.1245 21.0414 76.0323 20.7851 75.777 C 20.6829 75.6233 20.5806 75.368 20.5806 75.2153 C 20.5806 74.8581 20.8881 74.552 21.2463 74.552 ZM 27.7177 72 C 27.961 72 27.8341 72.1527 27.9494 72.4721 L 28 72.6384 L 28 75.6362 C 27.9494 76.0575 27.5779 76.2869 27.2837 76.2869 C 27.0401 76.2869 27.1539 76.1342 27.0387 75.8148 L 27 75.6492 L 27 72.6384 C 27.0387 72.2164 27.4102 72 27.7177 72 Z" fill="#79cdff"/>
				</g>
				<g>
					<path d="M 25 78 L 28 88 L 30.5 85.5 L 34 89 L 36 87 L 32.5 83.5 L 35 81 L 25 78 Z" fill="#79cdff"/>
				</g>
			</g>
			<g id="Close2">
				<path d="M 33.0486 67.5967 L 31.5964 69.0476 C 31.3306 69.3146 30.8963 69.3146 30.6292 69.0476 L 27.0007 65.4204 L 23.3718 69.0476 C 23.1055 69.3146 22.6704 69.3146 22.4047 69.0462 L 20.9514 67.5967 C 20.6858 67.3297 20.6858 66.897 20.9514 66.6285 L 24.5803 63 L 20.9524 59.3721 C 20.6868 59.1044 20.6868 58.669 20.9524 58.404 L 22.4047 56.9524 C 22.6704 56.6841 23.1061 56.6841 23.3718 56.9524 L 27 60.581 L 30.6289 56.9524 C 30.8963 56.6841 31.3306 56.6841 31.5953 56.9524 L 33.0476 58.402 C 33.3143 58.669 33.3143 59.1044 33.0486 59.3721 L 29.4204 63 L 33.0486 66.6285 C 33.3143 66.897 33.3143 67.3297 33.0486 67.5967 Z" fill="#79cdff"/>
			</g>
			<g id="Pencil2">
				<path d="M 24.8927 49.5473 L 21.7475 46.405 C 21.6008 46.2584 21.3875 46.199 21.1864 46.2516 C 20.9852 46.303 20.8264 46.4563 20.7679 46.6549 L 18.7745 51.7892 C 18.7139 51.9952 18.7711 52.2174 18.9229 52.3694 C 19.0347 52.4809 19.2927 52.5518 19.5036 52.518 L 24.6418 50.526 C 24.8413 50.4673 24.9951 50.3085 25.0465 50.1079 C 25.0978 49.9067 25.0394 49.6939 24.8927 49.5473 Z" fill="#79cdff"/>
				<g>
					<path d="M 29.8335 37.7197 L 33.5867 41.4693 L 25.5133 49.5345 L 21.7607 45.7849 L 29.8335 37.7197 L 29.8335 37.7197 ZM 29.8338 36.1081 C 29.6273 36.1081 29.4211 36.1864 29.2639 36.3431 L 20.3829 45.2155 C 20.0691 45.5296 20.0688 46.0416 20.3829 46.3543 L 24.9434 50.9111 C 25.1005 51.0685 25.3071 51.1468 25.5136 51.1468 C 25.7202 51.1468 25.9264 51.0685 26.0832 50.9111 L 34.9642 42.0394 C 35.2783 41.724 35.2783 41.2126 34.9642 40.8999 L 30.4034 36.3431 C 30.2465 36.1864 30.0403 36.1081 29.8338 36.1081 L 29.8338 36.1081 Z" fill="#79cdff"/>
				</g>
				<path d="M 22.5669 44.7089 L 21.3236 45.9511 L 25.3909 50.0147 L 26.6342 48.7725 L 22.5669 44.7089 Z" fill="#79cdff"/>
				<path d="M 24.6547 42.623 L 23.9137 43.3633 L 27.981 47.427 L 28.722 46.6867 L 24.6547 42.623 Z" fill="#79cdff"/>
				<path d="M 34.6154 54 L 21.4615 54 C 21.0701 54 20.753 54.099 20.753 53.7079 C 20.753 53.3168 21.0701 53 21.4615 53 L 34.6154 53 C 35.0068 53 35.3239 53.3168 35.3239 53.7079 C 35.3239 54.099 35.0068 54 34.6154 54 Z" fill="#79cdff"/>
			</g>
			<g id="Note2">
				<path d="M 27.7796 34.7703 C 27.4361 34.7703 27.1379 34.5146 27.0934 34.1651 C 27.0453 33.7858 27.3137 33.439 27.693 33.391 C 29.4042 33.174 30.4385 32.4885 31.69 29.1811 C 32.9415 25.8736 33.9603 22.7001 34.393 21.3148 L 25.5052 19.5449 L 22.857 26.8797 C 22.7278 27.24 22.3303 27.4266 21.9706 27.2955 C 21.6109 27.1656 21.4251 26.7688 21.5548 26.4091 L 24.4052 18.5144 C 24.5221 18.1913 24.8582 18 25.1915 18.071 L 35.4159 20.1067 C 35.6073 20.1445 35.7735 20.2615 35.8743 20.4285 C 35.9744 20.5962 36 20.7976 35.944 20.9842 C 35.9311 21.0262 34.6661 25.2293 32.9854 29.6705 C 31.6805 33.1179 30.3412 34.4511 27.8674 34.7649 C 27.8376 34.7682 27.8087 34.7703 27.7796 34.7703 Z" fill="#79cdff"/>
				<path d="M 27.7681 34.7561 C 26.9243 34.8317 25.9332 34.3558 25.9332 34.3558 L 20.1662 31.738 C 20.1662 31.738 17.4396 30.8841 18.2582 27.3361 L 26.1353 30.519 C 26.1353 30.519 25.8318 33.6634 28.2981 33.3173 C 28.7375 33.7649 28.5578 34.6154 27.7681 34.7561 Z" fill="#79cdff"/>
			</g>
			<path id="Refresh2" d="M 23.5613 14.5383 L 28 17 L 28 15.6249 C 31.8164 15.3137 34.8066 12.466 34.8066 8.9997 C 34.8066 7.1939 34.1855 5.5588 32.8698 4.3595 L 31.0016 5.8723 C 31.9078 6.6708 32.275 7.777 32.275 8.9997 C 32.275 11.2244 30.4156 13.0636 28 13.3631 L 28 12.0766 L 23.561 14.5383 L 23.5613 14.5383 ZM 31.6321 3.4617 L 27 1 L 27 2.3754 C 23.1836 2.6863 20.1934 5.5331 20.1934 9.0003 C 20.1934 10.8064 20.8145 12.4425 22.1316 13.6418 L 24.001 12.1287 C 23.0929 11.3305 22.7239 10.2237 22.7239 9.0003 C 22.7239 6.775 24.584 4.9338 27 4.6339 L 27 5.9234 L 31.6321 3.4617 Z" fill="#79cdff"/>
		</g>
	</g>
	<g>
		<g>
			<path d="M 7.3425 118.9688 L 2.5856 116.5 L 2.5856 116.4531 L 7.3425 113.9531 L 7.3425 112 L 1 116 L 1 117 L 7.3425 121 L 7.3425 118.9688 L 7.3425 118.9688 Z" fill="#c4c4c4"/>
			<path d="M 17 116 L 10.6575 112 L 10.6575 113.9688 L 15.4144 116.5 L 15.4144 116.5313 L 10.6575 118.9844 L 10.6575 121 L 17 117 L 17 116 L 17 116 Z" fill="#c4c4c4"/>
		</g>
	</g>
	<g>
		<g>
			<path d="M 25.3425 118.9688 L 20.5856 116.5 L 20.5856 116.4531 L 25.3425 113.9531 L 25.3425 112 L 19 116 L 19 117 L 25.3425 121 L 25.3425 118.9688 L 25.3425 118.9688 Z" fill="#79cdff"/>
			<path d="M 35 116 L 28.6575 112 L 28.6575 113.9688 L 33.4144 116.5 L 33.4144 116.5313 L 28.6575 118.9844 L 28.6575 121 L 35 117 L 35 116 L 35 116 Z" fill="#79cdff"/>
		</g>
	</g>
</svg>